HIERARCHY
ROOT Hips
{
  OFFSET 13.6774 106.653 -34.4427
  CHANNELS 6 Xposition Yposition Zposition Zrotation Xrotation Yrotation
  JOINT ToSpine
  {
    OFFSET -2.69724 7.43032 -0.144315
    CHANNELS 3 Zrotation Xrotation Yrotation
    JOINT Spine
    {
      OFFSET -0.0310711 10.7595 1.96963
      CHANNELS 3 Zrotation Xrotation Yrotation
      JOINT Spine1
      {
        OFFSET 19.9056 3.91189 0.764692
        CHANNELS 3 Zrotation Xrotation Yrotation
        JOINT Neck
        {
          OFFSET 25.9749 7.03908 -0.130764
          CHANNELS 3 Zrotation Xrotation Yrotation
          JOINT Head
          {
            OFFSET 9.52751 0.295786 -0.907742
            CHANNELS 3 Zrotation Xrotation Yrotation
            End Site
            {
              OFFSET 16.4037 0.713936 2.7358
            }
          }
        }
        JOINT LeftShoulder
        {
          OFFSET 17.7449 4.33886 11.7777
          CHANNELS 3 Zrotation Xrotation Yrotation
          JOINT LeftArm
          {
            OFFSET 0.911315 1.27913 9.80584
            CHANNELS 3 Zrotation Xrotation Yrotation
            JOINT LeftForeArm
            {
              OFFSET 28.6126 1.18197 -3.53199
              CHANNELS 3 Zrotation Xrotation Yrotation
              JOINT LeftHand
              {
                OFFSET 27.5088 0.0218783 0.327423
                CHANNELS 3 Zrotation Xrotation Yrotation
                End Site
                {
                  OFFSET 18.6038 -0.000155887 0.382096
                }
              }
            }
          }
        }
        JOINT RightShoulder
        {
          OFFSET 17.1009 2.89543 -12.2328
          CHANNELS 3 Zrotation Xrotation Yrotation
          JOINT RightArm
          {
            OFFSET 1.4228 0.178766 -10.211
            CHANNELS 3 Zrotation Xrotation Yrotation
            JOINT RightForeArm
            {
              OFFSET 28.733 1.87905 2.64907
              CHANNELS 3 Zrotation Xrotation Yrotation
              JOINT RightHand
              {
                OFFSET 27.4588 0.290562 -0.101845
                CHANNELS 3 Zrotation Xrotation Yrotation
                End Site
                {
                  OFFSET 17.8396 -0.255518 -0.000602873
                }
              }
            }
          }
        }
      }
    }
  }
  JOINT LeftUpLeg
  {
    OFFSET -5.61296 -2.22332 -10.2353
    CHANNELS 3 Zrotation Xrotation Yrotation
    JOINT LeftLeg
    {
      OFFSET 2.56703 -44.7417 -7.93097
      CHANNELS 3 Zrotation Xrotation Yrotation
      JOINT LeftFoot
      {
        OFFSET 3.16933 -46.5642 -3.96578
        CHANNELS 3 Zrotation Xrotation Yrotation
        JOINT LeftToeBase
        {
          OFFSET 0.346054 -6.02161 12.8035
          CHANNELS 3 Zrotation Xrotation Yrotation
          End Site
          {
            OFFSET 0.134235 -1.35082 5.13018
          }
        }
      }
    }
  }
  JOINT RightUpLeg
  {
    OFFSET -5.7928 -1.72406 10.6446
    CHANNELS 3 Zrotation Xrotation Yrotation
    JOINT RightLeg
    {
      OFFSET -2.57161 -44.7178 -7.85259
      CHANNELS 3 Zrotation Xrotation Yrotation
      JOINT RightFoot
      {
        OFFSET -3.10148 -46.5936 -4.03391
        CHANNELS 3 Zrotation Xrotation Yrotation
        JOINT RightToeBase
        {
          OFFSET -0.0828122 -6.13587 12.8035
          CHANNELS 3 Zrotation Xrotation Yrotation
          End Site
          {
            OFFSET -0.131328 -1.35082 5.13018
          }
        }
      }
    }
  }
}
MOTION
Frames: 10
Frame Time: 0.03333333333333333
0.0000 93.1000 0.0000 -8.4397 -69.3610 -102.4720 -71.2831 0.3986 87.7107 78.6365 65.0658 -0.6605 -2.6051 14.2325 8.1922 -151.5575 21.9738 178.5754 -154.5923 59.7212 173.6700 0.0321 -16.4818 -22.9781 -85.7430 51.7358 -129.4945 -12.4745 5.2344 -114.4219 -0.5238 -0.3865 0.1672 -0.4516 3.0756 25.1917 -76.0596 -40.0139 120.1442 4.0458 3.0961 125.6625 -0.4527 0.8415 1.0541 -65.0816 6.7878 96.3030 -0.7836 28.5830 -7.3963 -2.5321 -6.8738 -0.9734 5.8552 -17.4229 14.1683 -27.8184 -0.3440 94.6897 1.9252 46.3390 1.7802 -6.5192 -12.2588 0.7047 0.9403 -3.0396 -4.1226 
0.0000 93.1000 0.0000 6.7744 -69.1130 -87.1161 -71.0770 0.1539 87.8022 82.0793 64.6795 -2.8025 -2.6243 14.2129 7.4259 -149.7197 23.2941 174.7913 -153.3618 60.8554 175.5062 0.3504 -17.1432 -23.6529 -84.0432 49.7090 -130.5648 -11.4156 3.8989 -112.4426 -0.7454 0.0299 0.0403 -0.7338 4.1490 25.5911 -80.9482 -40.1088 120.4859 3.4391 3.1991 125.6964 -0.0076 -0.3706 0.1254 -63.7984 8.9270 97.5898 -1.8061 28.8719 -0.0918 -2.3376 -6.2754 -1.0577 4.7450 -13.7976 10.2019 -27.4036 -3.8200 91.2777 1.9250 46.4900 2.0918 -5.3941 -13.2894 0.9378 -0.0229 -2.5103 -4.9434 
0.0000 93.1000 0.0000 18.6311 -68.0707 -74.3246 -71.2247 0.2813 87.6639 84.8541 65.5221 -4.7171 -2.6940 13.9779 6.8581 -148.8091 24.6265 175.3653 -156.0710 62.4812 179.9355 0.3866 -17.2735 -24.0082 -84.2282 46.7823 -129.8761 -9.0524 2.7179 -112.0024 -0.0400 0.0704 -0.0581 -0.5362 4.3060 24.2684 -86.5147 -40.5265 119.5397 3.6254 3.1829 124.6397 -0.1869 -0.1116 0.4065 -62.6217 10.6918 97.5522 -1.7148 30.8264 2.4033 -2.3850 -4.1098 -0.8495 3.1731 -10.7531 6.7673 -28.0403 -6.0252 89.0594 2.1077 45.5480 0.5447 -4.7327 -13.5140 0.8027 0.1270 -2.1868 -5.6346 
0.0000 93.1000 0.0000 28.4925 -66.5040 -61.7653 -71.2810 0.3809 87.6996 85.7262 65.6710 -4.7593 -1.9833 13.5382 6.1206 -145.8374 25.4962 171.7973 -152.4700 63.7294 173.8703 0.4500 -16.6726 -22.6345 -81.7377 44.9792 -133.0411 -5.8815 0.4513 -108.5304 -0.0019 0.2960 -0.1301 -0.6195 4.5052 25.6009 -91.6113 -39.9209 118.5588 2.7762 2.2911 124.5802 -0.1868 -0.4228 0.2397 -61.9090 12.3127 97.4680 -2.1491 31.5385 1.4258 -1.7832 0.0737 -0.4904 2.9437 -10.3660 6.2002 -29.3945 -8.0083 87.0422 2.3291 45.1505 0.4443 -3.5934 -14.2348 1.1467 0.2919 -0.9335 -9.2978 
0.0000 93.1000 0.0000 37.3422 -64.5774 -52.8372 -71.1503 1.4720 87.8158 84.8103 66.0441 -3.9409 -1.2947 13.8787 5.5490 -142.0829 25.8091 171.0805 -152.2013 63.9475 173.7400 1.1184 -16.5880 -21.9533 -78.9312 43.8899 -135.0574 -3.6791 0.6942 -106.9861 0.3709 0.7005 0.2650 0.6674 4.6569 25.8384 -96.1152 -38.8350 117.2407 3.0947 2.5733 123.3252 -0.2486 0.2780 1.1879 -61.1848 13.9663 96.5465 -2.1444 32.9432 1.0738 -1.1897 2.7560 -0.9328 1.4326 -8.1802 4.8792 -29.8526 -9.5527 85.6852 1.5992 43.3983 0.6938 -4.4901 -15.4400 1.5278 2.8325 -1.0129 -10.9450 
0.0000 93.1000 0.0000 41.4460 -62.0837 -46.6855 -70.9913 -1.5455 87.8548 84.6057 66.6488 -1.7873 -1.3658 14.8103 4.3089 -139.9515 26.5310 168.8684 -152.9817 65.0182 174.0673 -1.3884 -16.3523 -22.2248 -76.5119 43.6596 -137.0012 -0.9951 -0.8685 -107.3068 -0.8176 -0.8742 -0.6978 -2.7813 5.4416 24.8649 -99.5106 -39.7803 116.4212 6.8709 5.0563 123.8389 0.2732 -1.1727 -1.7394 -60.7278 14.3554 95.4973 -1.4724 32.5428 0.1109 -2.8664 3.3352 0.6714 3.5549 -9.6930 3.5420 -31.1558 -11.9709 83.9194 1.0154 42.1167 -0.3392 -2.2526 -14.8766 1.1035 -1.3531 -0.3953 -10.3253 
0.0000 93.1000 0.0000 47.3476 -59.1763 -40.9908 -71.2201 1.7468 88.2889 84.5451 66.4232 -0.5384 -0.3951 15.3300 3.3957 -140.6116 26.7512 173.2148 -161.8274 66.0197 -176.5515 0.8151 -14.8850 -22.9931 -75.2751 42.0764 -137.8728 -1.5943 1.2922 -107.4407 0.7895 0.4415 0.6993 1.0469 5.2281 23.4729 -102.3523 -39.2213 115.9298 8.5492 5.5495 121.2108 -0.7301 1.2114 1.8358 -59.7419 14.9349 94.0644 -2.4868 31.8758 -0.3662 -4.7709 4.6173 -0.6765 3.2933 -11.1504 1.5236 -31.5070 -12.9873 82.7122 1.1053 40.8746 -0.7671 -2.9379 -14.9303 0.9040 3.4801 -1.5436 -12.1256 
0.0000 93.1000 0.0000 49.5177 -57.0386 -37.3419 -71.1578 -0.9816 87.8327 85.5402 67.1666 0.9581 -0.3159 15.7619 3.5716 -136.8096 27.4713 166.9243 -155.5764 67.1690 176.8687 -0.7801 -15.2383 -21.3547 -71.4458 41.9997 -139.9548 0.7326 -2.4549 -105.8113 -0.5325 -0.5691 -0.3662 -2.2023 5.7259 25.4041 -107.2528 -36.3268 113.6774 8.6856 6.5663 122.3680 0.3536 -0.9973 -1.4916 -59.6015 13.9727 93.9072 -1.1133 29.3099 -0.9800 -4.9462 2.5253 0.4748 6.1437 -14.4244 1.7678 -34.0411 -15.4503 79.8702 1.2726 37.8511 -1.3415 -0.0682 -12.4094 0.5965 -1.1622 -1.5211 -9.9452 
0.0000 93.1000 0.0000 52.0102 -56.0859 -34.1397 -71.0984 1.8808 88.3130 83.6209 67.6526 0.4293 -0.2650 16.7260 3.5392 -135.4958 26.8735 166.2238 -157.0541 67.5411 -181.3100 1.0072 -15.2313 -22.1987 -71.8962 40.8177 -140.1454 0.7524 0.0738 -106.0015 0.8800 0.3771 0.9790 1.3614 4.5841 25.2910 -111.3572 -35.3442 110.8030 6.7520 3.5532 121.1051 -0.7789 1.5440 2.5050 -58.8792 14.2313 94.5746 -1.5172 29.2121 -2.1713 -5.1243 0.3003 -0.7655 4.5501 -13.2667 1.2114 -34.5738 -16.4950 79.6610 0.8533 36.3325 -2.1861 -1.4397 -11.5496 0.6558 3.7786 -0.7736 -8.3626 
0.0000 93.1000 0.0000 52.7763 -53.6978 -32.5961 -70.8480 -0.4911 87.5403 86.5006 68.7532 -0.6217 -0.6982 17.4386 4.0974 -133.6488 28.2063 164.8903 -156.3426 68.2899 176.7867 0.2566 -15.9583 -22.0702 -69.6703 41.0848 -141.0198 1.1914 -1.1042 -105.8928 -0.3710 0.0256 -0.2423 -1.8170 5.2854 26.5445 -113.3859 -34.4957 108.3528 6.6925 5.5055 122.4155 0.1743 -0.8161 -0.9910 -57.8858 13.8198 95.4563 -0.7019 29.5964 -4.1373 -6.5334 -2.5889 0.1318 5.9123 -15.3511 5.9740 -36.1833 -17.7202 79.0711 0.7073 32.4546 -3.0105 0.4533 -8.4565 0.1693 -1.2141 -0.1342 -7.0934 
